# xmcd
#
# Track frame offsets:
#	150
#	14910
#	30204
#	45144
#	54354
#	71761
#	85487
#	99796
#	114513
#	129191
#	143803
#	158845
#	171353
#	184754
#	201191
#
# Disc length: 2849 seconds
#
# Revision: 1
# Processed by: cddbd v1.5.2PL0 Copyright (c) Steve Scherf et al.
# Submitted via: audiograbber 1.83.01
#
DISCID=bf0b1f0f
DTITLE=Scooter Lee - Midnight Hauler
DYEAR=1900
DGENRE=Country
TTITLE0=Midnight Hauler
TTITLE1=Slow Me Down
TTITLE2=Crazy Over You
TTITLE3=I Ant´t Never
TTITLE4=I Love You I Do
TTITLE5=Home To Louisiana
TTITLE6=Jambalaya
TTITLE7=Going BackTo Louisiana
TTITLE8=Same Kind Of Crazy As Me
TTITLE9=Raining In My Heart
TTITLE10=See You Later Alligator
TTITLE11=I Forgot To Remember
TTITLE12=Big City
TTITLE13=You Call Everybody Darling
TTITLE14=Time To Swing
EXTD=
EXTT0=
EXTT1=
EXTT2=
EXTT3=
EXTT4=
EXTT5=
EXTT6=
EXTT7=
EXTT8=
EXTT9=
EXTT10=
EXTT11=
EXTT12=
EXTT13=
EXTT14=
PLAYORDER=
